<?xml version="1.0" encoding="UTF-8"?><svg id="SCARF" xmlns="http://www.w3.org/2000/svg" viewBox="0 0 247.63 405.64"><defs><style></style></defs><g><path class="cls-2" d="M147.2,135.85l14.69,19.05c-26.21,30.72-17.19,102.31-17.19,102.31l-35.57-18.87-12.38-45.41,50.44-57.07Z"/><path class="cls-2" d="M53.55,70.95S35.29,13.46,.05,11.83C11.94,29.86-8.5,78.13,30.05,99.68l23.5-28.73Z"/><path class="cls-2" d="M76.21,73.74S78.49,13.46,45.87,0c5.09,20.99-30.48,59.5-1.49,92.82l31.83-19.08Z"/><path class="cls-2" d="M60.02,55.75c23.43,.08,17.84-8.4,37.77-19.64,0,0-6.75,9.26-4.88,16.84,0,0,12.72-12.44,28.47-16.56,0,0-4.37,3.56-3.49,7.42,0,0,31.96-7.5,38.85-2.77,0,0-30.68,3.62-27.93,19.98,0,0,59.81-12.23,66.61-22.31,0,0,1.38,4.34-.61,8.56,0,0,20.17-3.98,29.93-1.65,0,0-3.29,55.88-2.76,63.31,0,0-32.72-16.11-52.04,34.4,0,0-43.37-29.96-28.13,77.33,0,0-90.78,15.84-126.38-41.02,0,0,12.24-60.93-11.98-82.24,0,0,6.66,.43,14.93,8.3,0,0-10.32-21.6-18.32-28.17,0,0,16.48,8.15,23.77,15.01,0,0,14.4-41.28,36.21-36.8Z"/><path class="cls-2" d="M238.21,113.37c1.8-10.63-6.89-15.51-8.61-27.95l-98.26,37.27c11.34,62.46,74.03,67.94,74.03,67.94-7.03-9.71-5.8-17.98-5.8-17.98,0,0,9.94,10.07,15.2,17.97,3.58,5.38,8.3,17.83,8.3,17.83,0,0,20.55-35.87,13.78-62.44-6.25-24.52,.07-30.08,1.37-32.63Z"/><path class="cls-2" d="M234.33,121.64c.74,4.76,7.92,25.82,7.92,25.82,17.43-72.9-13.01-88.17-13.01-88.17-.37-7.77-3.68-13.17-3.68-13.17-10.12-2.67-31.26,.97-31.26,.97,2.18-4.35,.86-8.91,.86-8.91-3.69,5.2-21.59,12.37-38.5,18.22l80.18,89.6c-4.14-14.15-2.51-24.36-2.51-24.36Z"/><path class="cls-2" d="M139.2,240.13c-2.06-31.18-15-34.32,2.31-70.21l-15.77-25.18L14.9,114.94c8.52,36.72-2,39.24-7.98,50.55-9.69,18.3,133.68,95.77,132.28,74.64Z"/><path class="cls-2" d="M83.59,220.81c2.59,5.94,60.76,34.64,60.76,34.64,.61,.43-21.2-13.99-20.46-13.48,.02,.01,.04,.03,.06,.04,.34,.24,.7,.48,1.07,.74,.08,.05,.16,.11,.24,.16,.34,.23,.7,.47,1.07,.72,.07,.05,.15,.1,.22,.15,.37,.25,.75,.5,1.14,.77,.15,.1,.31,.21,.46,.31,.36,.24,.72,.48,1.1,.73,.16,.1,.32,.21,.48,.32,.39,.26,.78,.52,1.19,.79,.2,.13,.41,.27,.61,.4,.4,.26,.79,.52,1.21,.8,.22,.14,.45,.3,.68,.45,.43,.28,.86,.57,1.31,.86,.22,.14,.45,.29,.67,.44,.49,.32,.97,.64,1.48,.97,.24,.16,.5,.33,.75,.49,.5,.33,1,.65,1.53,1,.38,.25,.79,.51,1.18,.76,.43,.28,.85,.55,1.3,.84,.46,.3,.96,.62,1.44,.93,.41,.27,.82,.53,1.24,.8,0,0,.02,.01,.03,.02-.26-5.39-1.44-27.78-1.78-32.78-7.57-6.57-30.29-22.08-36.88-26.61-2.59,.09-19.22,24.74-22.13,24.73Z"/><path class="cls-2" d="M144.37,255.47c-.23-4.59-1.11-21.49-1.57-29.49-.08-1.39-.15-2.55-.2-3.29-7.57-6.57-30.29-22.08-36.88-26.61-2.59,.09-19.22,24.74-22.13,24.73,.13,.3,.44,.67,.84,1.08,7.49,7.68,59.61,33.4,59.91,33.56-.05-.03-.18-.11-.38-.24,.13,.08,.26,.17,.39,.25,0,0,.02,.01,.03,.02Z"/></g><path class="cls-2" d="M166.15,263.48c-2.6-8.36-16.06-27.5-23.35-37.51,.47,8.01,1.35,24.9,1.57,29.49,0,0-.02-.01-.03-.02-.13-.09-.26-.17-.39-.25,.2,.13,.32,.21,.38,.24-.31-.15-52.42-25.88-59.91-33.56-1.44-.73-2.91-1.48-4.41-2.25-4.85-2.84-9.5-5.61-13.61-8.13-35.14-23.97-49.82-59-49.82-59l.52-8.09s-3.05-3.18-7.39-.87c-1.88,1-4.84,4.56-6.11,8.96-20.14,69.94,49.37,106.52,85.97,131.25,36.57,24.74,55.93,48.87,55.93,48.87,1.94-1.24,4.04-12.59,7.33-22.28,0,0,0,0,0,0,.88-2.77,3.61-7.93,5.38-11.14,.74-.92,1.21-1.82,1.52-2.72,.03-.06,.06-.1,.06-.1,0,0,0,0,0,0,7.46-12.77,9.34-23.34,6.36-32.91Z"/></svg>